# xmcd
#
# Track frame offsets:
#	150
#	19935
#	34737
#	49007
#	67302
#	102045
#	116912
#	135835
#	154660
#	169300
#	186217
#
# Disc length: 2680 seconds
#
# Revision: 12
# Processed by: cddbd v1.5.2PL0 Copyright (c) Steve Scherf et al.
# Submitted via: EZCDAudioConverter 1.3.4.1
#
DISCID=940a760b
DTITLE=Jonny Lang and The Big Bang - Smokin'
DYEAR=1995
DGENRE=Blues
TTITLE0=Louise
TTITLE1=Changes
TTITLE2=Lovin' My Baby
TTITLE3=I Love You the Best
TTITLE4=Nice and Warm
TTITLE5=It's Obdacious
TTITLE6=Sugarman
TTITLE7='E' Train
TTITLE8=Too Tired
TTITLE9=Smokin'
TTITLE10=Malted Milk
EXTD=
EXTT0=
EXTT1=
EXTT2=
EXTT3=
EXTT4=
EXTT5=
EXTT6=
EXTT7=
EXTT8=
EXTT9=
EXTT10=
PLAYORDER=
